<svg width="163" height="112" viewBox="0 0 163 112" fill="none" xmlns="http://www.w3.org/2000/svg">
<g clip-path="url(#clip0_448_1677)">
<rect width="232" height="156" transform="translate(-17 -32)" fill="#1F1F1F"/>
<rect x="110" y="-11" width="52" height="55" rx="7" fill="#438EFF"/>
<path d="M171 34.5C171 30.6433 169.974 26.8731 168.051 23.6664C166.128 20.4596 163.395 17.9603 160.197 16.4843C156.999 15.0084 153.481 14.6223 150.086 15.3747C146.691 16.1271 143.573 17.9843 141.126 20.7114C138.678 23.4385 137.011 26.9131 136.336 30.6957C135.661 34.4784 136.008 38.3992 137.332 41.9623C138.657 45.5255 140.9 48.571 143.778 50.7137C146.655 52.8563 150.039 54 153.5 54L153.5 39.7036C152.576 39.7036 151.674 39.3984 150.906 38.8266C150.138 38.2548 149.539 37.4421 149.186 36.4913C148.832 35.5405 148.74 34.4942 148.92 33.4848C149.1 32.4754 149.545 31.5483 150.198 30.8205C150.851 30.0928 151.683 29.5972 152.589 29.3964C153.495 29.1956 154.434 29.2987 155.287 29.6925C156.14 30.0864 156.87 30.7533 157.383 31.6091C157.896 32.4648 158.17 33.4708 158.17 34.5H171Z" fill="#1F1F1F"/>
<path d="M96.123 37.773H96.023V37.873V51.875V51.975H96.123H110.125H110.225V51.875V37.873V37.773H110.125H96.123ZM86.4968 66.9917L86.4968 66.9917L86.4996 66.9945C87.652 68.147 89.0295 68.725 90.627 68.725H129.623C131.135 68.725 132.468 68.1457 133.62 66.9945C134.771 65.8434 135.35 64.5099 135.35 62.998V24.002C135.35 22.4901 134.771 21.1566 133.62 20.0055C132.468 18.8543 131.135 18.275 129.623 18.275H126.975V12.748V12.648H126.875H121.248H121.148V12.748V18.275H99.102V12.748V12.648H99.002H93.375H93.275V12.748V18.275H90.627C89.0295 18.275 87.652 18.853 86.4996 20.0055L86.4995 20.0054L86.4968 20.0083C85.4337 21.1601 84.9 22.4926 84.9 24.002V62.998C84.9 64.5074 85.4337 65.8399 86.4968 66.9917ZM90.727 32.477H129.523V62.898H90.727V32.477Z" fill="white"/>
<path d="M96.123 37.773H96.023V37.873V51.875V51.975H96.123H110.125H110.225V51.875V37.873V37.773H110.125H96.123ZM86.4968 66.9917L86.4968 66.9917L86.4996 66.9945C87.652 68.147 89.0295 68.725 90.627 68.725H129.623C131.135 68.725 132.468 68.1457 133.62 66.9945C134.771 65.8434 135.35 64.5099 135.35 62.998V24.002C135.35 22.4901 134.771 21.1566 133.62 20.0055C132.468 18.8543 131.135 18.275 129.623 18.275H126.975V12.748V12.648H126.875H121.248H121.148V12.748V18.275H99.102V12.748V12.648H99.002H93.375H93.275V12.748V18.275H90.627C89.0295 18.275 87.652 18.853 86.4996 20.0055L86.4995 20.0054L86.4968 20.0083C85.4337 21.1601 84.9 22.4926 84.9 24.002V62.998C84.9 64.5074 85.4337 65.8399 86.4968 66.9917ZM90.727 32.477H129.523V62.898H90.727V32.477Z" stroke="#1B1A1A" stroke-width="0.2" style="mix-blend-mode:color"/>
<path d="M21.8438 91.3711H24.2852C24.207 92.3021 23.9466 93.1322 23.5039 93.8613C23.0612 94.584 22.4395 95.1536 21.6387 95.5703C20.8379 95.987 19.8646 96.1953 18.7188 96.1953C17.8398 96.1953 17.0488 96.0391 16.3457 95.7266C15.6426 95.4076 15.0404 94.9583 14.5391 94.3789C14.0378 93.793 13.6536 93.0866 13.3867 92.2598C13.1263 91.4329 12.9961 90.5085 12.9961 89.4863V88.3047C12.9961 87.2826 13.1296 86.3581 13.3965 85.5312C13.6699 84.7044 14.0605 83.998 14.5684 83.4121C15.0762 82.8197 15.6849 82.3672 16.3945 82.0547C17.1107 81.7422 17.9147 81.5859 18.8066 81.5859C19.9395 81.5859 20.8965 81.7943 21.6777 82.2109C22.459 82.6276 23.0645 83.2038 23.4941 83.9395C23.9303 84.6751 24.1973 85.5182 24.2949 86.4688H21.8535C21.7884 85.8568 21.6452 85.3327 21.4238 84.8965C21.209 84.4603 20.89 84.1283 20.4668 83.9004C20.0436 83.666 19.4902 83.5488 18.8066 83.5488C18.2467 83.5488 17.7585 83.653 17.3418 83.8613C16.9251 84.0697 16.5768 84.3757 16.2969 84.7793C16.0169 85.1829 15.8053 85.681 15.6621 86.2734C15.5254 86.8594 15.457 87.5299 15.457 88.2852V89.4863C15.457 90.2025 15.5189 90.8535 15.6426 91.4395C15.7728 92.0189 15.9681 92.5169 16.2285 92.9336C16.4954 93.3503 16.834 93.6725 17.2441 93.9004C17.6543 94.1283 18.1458 94.2422 18.7188 94.2422C19.4154 94.2422 19.9785 94.1315 20.4082 93.9102C20.8444 93.6888 21.1732 93.3665 21.3945 92.9434C21.6224 92.5137 21.7721 91.9896 21.8438 91.3711ZM29.1016 81V96H26.7578V81H29.1016ZM28.6914 90.3262L27.9297 90.3164C27.9362 89.5872 28.0371 88.9134 28.2324 88.2949C28.4342 87.6764 28.7142 87.1393 29.0723 86.6836C29.4368 86.2214 29.873 85.8665 30.3809 85.6191C30.8887 85.3652 31.4518 85.2383 32.0703 85.2383C32.5911 85.2383 33.0599 85.3099 33.4766 85.4531C33.8997 85.5964 34.2643 85.8275 34.5703 86.1465C34.8763 86.459 35.1074 86.8691 35.2637 87.377C35.4264 87.8783 35.5078 88.4902 35.5078 89.2129V96H33.1445V89.1934C33.1445 88.6855 33.0697 88.2819 32.9199 87.9824C32.7767 87.6829 32.5651 87.4681 32.2852 87.3379C32.0052 87.2012 31.6634 87.1328 31.2598 87.1328C30.8366 87.1328 30.4622 87.2174 30.1367 87.3867C29.8177 87.556 29.5508 87.7871 29.3359 88.0801C29.1211 88.373 28.9583 88.7116 28.8477 89.0957C28.7435 89.4798 28.6914 89.89 28.6914 90.3262ZM43.0488 96.1953C42.2676 96.1953 41.5612 96.0684 40.9297 95.8145C40.3047 95.554 39.7708 95.1927 39.3281 94.7305C38.8919 94.2682 38.5566 93.7246 38.3223 93.0996C38.0879 92.4746 37.9707 91.8008 37.9707 91.0781V90.6875C37.9707 89.8607 38.0911 89.112 38.332 88.4414C38.5729 87.7708 38.9082 87.1979 39.3379 86.7227C39.7676 86.2409 40.2754 85.873 40.8613 85.6191C41.4473 85.3652 42.082 85.2383 42.7656 85.2383C43.5208 85.2383 44.1816 85.3652 44.748 85.6191C45.3145 85.873 45.7832 86.2311 46.1543 86.6934C46.5319 87.1491 46.8118 87.6927 46.9941 88.3242C47.1829 88.9557 47.2773 89.6523 47.2773 90.4141V91.4199H39.1133V89.7305H44.9531V89.5449C44.9401 89.1217 44.8555 88.7246 44.6992 88.3535C44.5495 87.9824 44.3184 87.6829 44.0059 87.4551C43.6934 87.2272 43.2767 87.1133 42.7559 87.1133C42.3652 87.1133 42.0169 87.1979 41.7109 87.3672C41.4115 87.5299 41.1608 87.7676 40.959 88.0801C40.7572 88.3926 40.6009 88.7702 40.4902 89.2129C40.3861 89.6491 40.334 90.1406 40.334 90.6875V91.0781C40.334 91.5404 40.3958 91.9701 40.5195 92.3672C40.6497 92.7578 40.8385 93.0996 41.0859 93.3926C41.3333 93.6855 41.6328 93.9167 41.9844 94.0859C42.3359 94.2487 42.7363 94.3301 43.1855 94.3301C43.752 94.3301 44.2565 94.2161 44.6992 93.9883C45.1419 93.7604 45.526 93.4382 45.8516 93.0215L47.0918 94.2227C46.8639 94.5547 46.5677 94.8737 46.2031 95.1797C45.8385 95.4792 45.3926 95.7233 44.8652 95.9121C44.3444 96.1009 43.7389 96.1953 43.0488 96.1953ZM53.9297 94.3203C54.3138 94.3203 54.6589 94.2454 54.9648 94.0957C55.2773 93.9395 55.528 93.7246 55.7168 93.4512C55.9121 93.1777 56.0195 92.862 56.0391 92.5039H58.2559C58.2428 93.1875 58.041 93.8092 57.6504 94.3691C57.2598 94.929 56.7422 95.375 56.0977 95.707C55.4531 96.0326 54.7402 96.1953 53.959 96.1953C53.1517 96.1953 52.4486 96.0586 51.8496 95.7852C51.2507 95.5052 50.7526 95.1211 50.3555 94.6328C49.9583 94.1445 49.6589 93.5814 49.457 92.9434C49.2617 92.3053 49.1641 91.6217 49.1641 90.8926V90.5508C49.1641 89.8216 49.2617 89.138 49.457 88.5C49.6589 87.8555 49.9583 87.2891 50.3555 86.8008C50.7526 86.3125 51.2507 85.9316 51.8496 85.6582C52.4486 85.3783 53.1484 85.2383 53.9492 85.2383C54.7956 85.2383 55.5378 85.4076 56.1758 85.7461C56.8138 86.0781 57.3151 86.5436 57.6797 87.1426C58.0508 87.735 58.2428 88.4251 58.2559 89.2129H56.0391C56.0195 88.8223 55.9219 88.4707 55.7461 88.1582C55.5768 87.8392 55.3359 87.5853 55.0234 87.3965C54.7174 87.2077 54.3496 87.1133 53.9199 87.1133C53.4447 87.1133 53.0508 87.2109 52.7383 87.4062C52.4258 87.5951 52.1816 87.8555 52.0059 88.1875C51.8301 88.513 51.7031 88.8809 51.625 89.291C51.5534 89.6947 51.5176 90.1146 51.5176 90.5508V90.8926C51.5176 91.3288 51.5534 91.752 51.625 92.1621C51.6966 92.5723 51.8203 92.9401 51.9961 93.2656C52.1784 93.5846 52.4258 93.8418 52.7383 94.0371C53.0508 94.2259 53.4479 94.3203 53.9297 94.3203ZM62.9355 81V96H60.5723V81H62.9355ZM69.498 85.4336L64.8984 90.5312L62.3789 93.1094L61.7637 91.1172L63.668 88.7637L66.6562 85.4336H69.498ZM67.1641 96L63.7363 91.0391L65.2207 89.3887L69.8887 96H67.1641ZM79.8242 81.7812V96H77.373V81.7812H79.8242ZM85.4707 87.6895V96H83.1172V85.4336H85.334L85.4707 87.6895ZM85.0508 90.3262L84.2891 90.3164C84.2956 89.5677 84.3997 88.8809 84.6016 88.2559C84.8099 87.6309 85.0964 87.0938 85.4609 86.6445C85.832 86.1953 86.2747 85.8503 86.7891 85.6094C87.3034 85.362 87.8763 85.2383 88.5078 85.2383C89.0156 85.2383 89.4746 85.3099 89.8848 85.4531C90.3014 85.5898 90.6562 85.8145 90.9492 86.127C91.2487 86.4395 91.4766 86.8464 91.6328 87.3477C91.7891 87.8424 91.8672 88.4512 91.8672 89.1738V96H89.5039V89.1641C89.5039 88.6562 89.429 88.2559 89.2793 87.9629C89.1361 87.6634 88.9245 87.4518 88.6445 87.3281C88.3711 87.1979 88.0293 87.1328 87.6191 87.1328C87.2155 87.1328 86.8542 87.2174 86.5352 87.3867C86.2161 87.556 85.946 87.7871 85.7246 88.0801C85.5098 88.373 85.3438 88.7116 85.2266 89.0957C85.1094 89.4798 85.0508 89.89 85.0508 90.3262Z" fill="white"/>
</g>
<defs>
<clipPath id="clip0_448_1677">
<rect width="163" height="112" rx="20" fill="white"/>
</clipPath>
</defs>
</svg>
