<svg width="164" height="112" viewBox="0 0 164 112" fill="none" xmlns="http://www.w3.org/2000/svg">
<g clip-path="url(#clip0_448_1697)">
<g clip-path="url(#clip1_448_1697)">
<rect width="232" height="156" transform="translate(-8 -22)" fill="#1F1F1F"/>
<g clip-path="url(#clip2_448_1697)">
<rect width="81" height="87" transform="translate(4 -18)" fill="#1F1F1F"/>
<ellipse cx="45.2641" cy="25.5" rx="36.6792" ry="40.4474" fill="#9859FF"/>
<g style="mix-blend-mode:hue">
<rect x="48.3207" y="24.7368" width="42.7924" height="44.2632" rx="7" fill="#FF2626"/>
</g>
<path d="M10.7532 72.631C12.5482 74.5985 14.7103 75.5823 17.2396 75.5823C19.7688 75.5823 21.9309 74.5985 23.7259 72.631C25.5209 70.6635 26.4183 68.2935 26.4183 65.5211C26.4183 62.7487 25.5209 60.3787 23.7259 58.4112C21.9309 56.4437 19.7688 55.4599 17.2396 55.4599C14.7103 55.4599 12.5482 56.4437 10.7532 58.4112C8.95828 60.3787 8.0608 62.7487 8.0608 65.5211C8.0608 68.2935 8.95828 70.6635 10.7532 72.631ZM36.6986 68.3382L42.2058 73.0334C42.7769 73.4806 42.8585 74.1066 42.4506 74.9115L37.1881 84.8385C36.8617 85.4646 36.3314 85.6434 35.5971 85.3751L29.1108 82.558C27.3974 83.8995 25.9288 84.8385 24.705 85.3751L23.7259 92.8875C23.5627 93.6924 23.1548 94.0948 22.5021 94.0948H11.9771C11.3244 94.0948 10.9164 93.6924 10.7532 92.8875L9.77417 85.3751C8.22398 84.6597 6.75538 83.7206 5.36836 82.558L-1.11797 85.3751C-1.85227 85.6434 -2.3826 85.4646 -2.70895 84.8385L-7.97144 74.9115C-8.37939 74.1066 -8.2978 73.4806 -7.72668 73.0334L-2.21942 68.3382C-2.30101 67.7122 -2.3418 66.7732 -2.3418 65.5211C-2.3418 64.269 -2.30101 63.33 -2.21942 62.704L-7.72668 58.0088C-8.2978 57.5616 -8.37939 56.9356 -7.97144 56.1307L-2.70895 46.2037C-2.3826 45.5776 -1.85227 45.3988 -1.11797 45.6671L5.36836 48.4842C7.08173 47.1427 8.55034 46.2037 9.77417 45.6671L10.7532 38.1547C10.9164 37.3498 11.3244 36.9474 11.9771 36.9474H22.5021C23.1548 36.9474 23.5627 37.3498 23.7259 38.1547L24.705 45.6671C26.2552 46.3825 27.7238 47.3216 29.1108 48.4842L35.5971 45.6671C36.3314 45.3988 36.8617 45.5776 37.1881 46.2037L42.4506 56.1307C42.8585 56.9356 42.7769 57.5616 42.2058 58.0088L36.6986 62.704C36.7801 63.33 36.8209 64.269 36.8209 65.5211C36.8209 66.7732 36.7801 67.7122 36.6986 68.3382Z" fill="#1F1F1F"/>
</g>
<path d="M117.215 43.8435C118.429 46.2258 120.302 47.8286 122.836 48.6518C125.37 49.4751 127.828 49.2797 130.21 48.0659C132.592 46.852 134.195 44.9783 135.018 42.4446C135.842 39.9109 135.646 37.4529 134.433 35.0706C133.219 32.6883 131.345 31.0855 128.811 30.2622C126.278 29.439 123.82 29.6343 121.437 30.8482C119.055 32.062 117.452 33.9358 116.629 36.4695C115.806 39.0031 116.001 41.4611 117.215 43.8435ZM144.48 48.3652L148.603 54.4486C149.042 55.0432 148.938 55.6419 148.29 56.2447L140.071 63.604C139.558 64.0699 138.974 64.0607 138.318 63.5765L132.657 58.8908C130.542 59.5591 128.792 59.9392 127.407 60.0313L124.195 66.5781C123.793 67.2605 123.264 67.4955 122.611 67.2831L112.067 63.8573C111.413 63.6449 111.124 63.1443 111.2 62.3556L112.45 55.1715C111.109 54.0131 109.917 52.6769 108.873 51.1629L101.539 51.6263C100.723 51.6325 100.245 51.2964 100.104 50.618L97.7802 39.833C97.6106 38.9646 97.8782 38.419 98.5831 38.1963L105.494 35.6979C105.598 35.0992 105.836 34.2278 106.208 33.0835C106.58 31.9393 106.9 31.0944 107.167 30.5488L103.045 24.4654C102.605 23.8709 102.709 23.2722 103.357 22.6694L111.576 15.3101C112.089 14.8442 112.674 14.8533 113.33 15.3375L118.991 20.0233C121.105 19.355 122.855 18.9748 124.241 18.8828L127.452 12.336C127.855 11.6535 128.383 11.4185 129.037 11.631L139.58 15.0567C140.234 15.2692 140.523 15.7697 140.447 16.5584L139.198 23.7425C140.538 24.901 141.73 26.2371 142.775 27.7511L150.109 27.2878C150.924 27.2816 151.402 27.6177 151.543 28.296L153.867 39.0811C154.037 39.9494 153.769 40.495 153.064 40.7178L146.153 43.2161C146.049 43.8148 145.811 44.6863 145.439 45.8305C145.067 46.9747 144.748 47.8196 144.48 48.3652Z" fill="white"/>
</g>
<path d="M65.667 92.3379C65.667 92.0449 65.6214 91.7845 65.5303 91.5566C65.4456 91.3288 65.2926 91.1204 65.0713 90.9316C64.8499 90.7428 64.5374 90.5605 64.1338 90.3848C63.7367 90.2025 63.2288 90.0169 62.6104 89.8281C61.9333 89.6198 61.3083 89.3887 60.7354 89.1348C60.1689 88.8743 59.6742 88.5749 59.251 88.2363C58.8278 87.8913 58.499 87.4974 58.2646 87.0547C58.0303 86.6055 57.9131 86.0879 57.9131 85.502C57.9131 84.9225 58.0335 84.3952 58.2744 83.9199C58.5218 83.4447 58.8701 83.0345 59.3193 82.6895C59.7751 82.3379 60.3122 82.0677 60.9307 81.8789C61.5492 81.6836 62.2327 81.5859 62.9814 81.5859C64.0361 81.5859 64.9443 81.7812 65.7061 82.1719C66.4743 82.5625 67.0635 83.0866 67.4736 83.7441C67.8903 84.4017 68.0986 85.1276 68.0986 85.9219H65.667C65.667 85.4531 65.5661 85.0397 65.3643 84.6816C65.1689 84.3171 64.8695 84.0306 64.4658 83.8223C64.0687 83.6139 63.5641 83.5098 62.9521 83.5098C62.3727 83.5098 61.891 83.5977 61.5068 83.7734C61.1227 83.9492 60.8363 84.1868 60.6475 84.4863C60.4587 84.7858 60.3643 85.1243 60.3643 85.502C60.3643 85.7689 60.4261 86.013 60.5498 86.2344C60.6735 86.4492 60.8623 86.651 61.1162 86.8398C61.3701 87.0221 61.6891 87.1947 62.0732 87.3574C62.4574 87.5202 62.9098 87.6764 63.4307 87.8262C64.2184 88.0605 64.9053 88.321 65.4912 88.6074C66.0771 88.8874 66.5654 89.2064 66.9561 89.5645C67.3467 89.9225 67.6396 90.3294 67.835 90.7852C68.0303 91.2344 68.1279 91.7454 68.1279 92.3184C68.1279 92.9173 68.0075 93.4577 67.7666 93.9395C67.5257 94.4147 67.1807 94.8216 66.7314 95.1602C66.2887 95.4922 65.7549 95.7493 65.1299 95.9316C64.5114 96.1074 63.8213 96.1953 63.0596 96.1953C62.376 96.1953 61.7021 96.1042 61.0381 95.9219C60.3805 95.7396 59.7816 95.4629 59.2412 95.0918C58.7008 94.7142 58.2712 94.2454 57.9521 93.6855C57.6331 93.1191 57.4736 92.4583 57.4736 91.7031H59.9248C59.9248 92.1654 60.0029 92.5592 60.1592 92.8848C60.3219 93.2103 60.5465 93.4772 60.833 93.6855C61.1195 93.8874 61.4515 94.0371 61.8291 94.1348C62.2132 94.2324 62.6234 94.2812 63.0596 94.2812C63.6325 94.2812 64.111 94.1999 64.4951 94.0371C64.8857 93.8743 65.1787 93.6465 65.374 93.3535C65.5693 93.0605 65.667 92.722 65.667 92.3379ZM75.2197 96.1953C74.4385 96.1953 73.7321 96.0684 73.1006 95.8145C72.4756 95.554 71.9417 95.1927 71.499 94.7305C71.0628 94.2682 70.7275 93.7246 70.4932 93.0996C70.2588 92.4746 70.1416 91.8008 70.1416 91.0781V90.6875C70.1416 89.8607 70.262 89.112 70.5029 88.4414C70.7438 87.7708 71.0791 87.1979 71.5088 86.7227C71.9385 86.2409 72.4463 85.873 73.0322 85.6191C73.6182 85.3652 74.2529 85.2383 74.9365 85.2383C75.6917 85.2383 76.3525 85.3652 76.9189 85.6191C77.4854 85.873 77.9541 86.2311 78.3252 86.6934C78.7028 87.1491 78.9827 87.6927 79.165 88.3242C79.3538 88.9557 79.4482 89.6523 79.4482 90.4141V91.4199H71.2842V89.7305H77.124V89.5449C77.111 89.1217 77.0264 88.7246 76.8701 88.3535C76.7204 87.9824 76.4893 87.6829 76.1768 87.4551C75.8643 87.2272 75.4476 87.1133 74.9268 87.1133C74.5361 87.1133 74.1878 87.1979 73.8818 87.3672C73.5824 87.5299 73.3317 87.7676 73.1299 88.0801C72.9281 88.3926 72.7718 88.7702 72.6611 89.2129C72.557 89.6491 72.5049 90.1406 72.5049 90.6875V91.0781C72.5049 91.5404 72.5667 91.9701 72.6904 92.3672C72.8206 92.7578 73.0094 93.0996 73.2568 93.3926C73.5042 93.6855 73.8037 93.9167 74.1553 94.0859C74.5068 94.2487 74.9072 94.3301 75.3564 94.3301C75.9229 94.3301 76.4274 94.2161 76.8701 93.9883C77.3128 93.7604 77.6969 93.4382 78.0225 93.0215L79.2627 94.2227C79.0348 94.5547 78.7386 94.8737 78.374 95.1797C78.0094 95.4792 77.5635 95.7233 77.0361 95.9121C76.5153 96.1009 75.9098 96.1953 75.2197 96.1953ZM86.6279 85.4336V87.1523H80.6709V85.4336H86.6279ZM82.3896 82.8457H84.7432V93.0801C84.7432 93.4056 84.7887 93.6562 84.8799 93.832C84.9775 94.0013 85.111 94.1152 85.2803 94.1738C85.4495 94.2324 85.6481 94.2617 85.876 94.2617C86.0387 94.2617 86.195 94.252 86.3447 94.2324C86.4945 94.2129 86.6149 94.1934 86.7061 94.1738L86.7158 95.9707C86.5205 96.0293 86.2926 96.0814 86.0322 96.127C85.7783 96.1725 85.4854 96.1953 85.1533 96.1953C84.613 96.1953 84.1344 96.1009 83.7178 95.9121C83.3011 95.7168 82.9756 95.401 82.7412 94.9648C82.5068 94.5286 82.3896 93.9492 82.3896 93.2266V82.8457ZM93.7881 85.4336V87.1523H87.8311V85.4336H93.7881ZM89.5498 82.8457H91.9033V93.0801C91.9033 93.4056 91.9489 93.6562 92.04 93.832C92.1377 94.0013 92.2712 94.1152 92.4404 94.1738C92.6097 94.2324 92.8083 94.2617 93.0361 94.2617C93.1989 94.2617 93.3551 94.252 93.5049 94.2324C93.6546 94.2129 93.7751 94.1934 93.8662 94.1738L93.876 95.9707C93.6807 96.0293 93.4528 96.0814 93.1924 96.127C92.9385 96.1725 92.6455 96.1953 92.3135 96.1953C91.7731 96.1953 91.2946 96.1009 90.8779 95.9121C90.4613 95.7168 90.1357 95.401 89.9014 94.9648C89.667 94.5286 89.5498 93.9492 89.5498 93.2266V82.8457ZM98.624 85.4336V96H96.2607V85.4336H98.624ZM96.1045 82.6602C96.1045 82.3021 96.2217 82.0059 96.4561 81.7715C96.6969 81.5306 97.029 81.4102 97.4521 81.4102C97.8688 81.4102 98.1976 81.5306 98.4385 81.7715C98.6794 82.0059 98.7998 82.3021 98.7998 82.6602C98.7998 83.0117 98.6794 83.3047 98.4385 83.5391C98.1976 83.7734 97.8688 83.8906 97.4521 83.8906C97.029 83.8906 96.6969 83.7734 96.4561 83.5391C96.2217 83.3047 96.1045 83.0117 96.1045 82.6602ZM104.036 87.6895V96H101.683V85.4336H103.899L104.036 87.6895ZM103.616 90.3262L102.854 90.3164C102.861 89.5677 102.965 88.8809 103.167 88.2559C103.375 87.6309 103.662 87.0938 104.026 86.6445C104.397 86.1953 104.84 85.8503 105.354 85.6094C105.869 85.362 106.442 85.2383 107.073 85.2383C107.581 85.2383 108.04 85.3099 108.45 85.4531C108.867 85.5898 109.222 85.8145 109.515 86.127C109.814 86.4395 110.042 86.8464 110.198 87.3477C110.354 87.8424 110.433 88.4512 110.433 89.1738V96H108.069V89.1641C108.069 88.6562 107.994 88.2559 107.845 87.9629C107.701 87.6634 107.49 87.4518 107.21 87.3281C106.937 87.1979 106.595 87.1328 106.185 87.1328C105.781 87.1328 105.42 87.2174 105.101 87.3867C104.782 87.556 104.511 87.7871 104.29 88.0801C104.075 88.373 103.909 88.7116 103.792 89.0957C103.675 89.4798 103.616 89.89 103.616 90.3262ZM120.103 85.4336H122.241V95.707C122.241 96.6576 122.039 97.4648 121.636 98.1289C121.232 98.793 120.669 99.2975 119.946 99.6426C119.224 99.9941 118.387 100.17 117.437 100.17C117.033 100.17 116.584 100.111 116.089 99.9941C115.601 99.877 115.125 99.6882 114.663 99.4277C114.207 99.1738 113.826 98.8385 113.521 98.4219L114.624 97.0352C115.002 97.4844 115.418 97.8132 115.874 98.0215C116.33 98.2298 116.808 98.334 117.31 98.334C117.85 98.334 118.309 98.2331 118.687 98.0312C119.071 97.8359 119.367 97.5462 119.575 97.1621C119.784 96.778 119.888 96.3092 119.888 95.7559V87.8262L120.103 85.4336ZM112.925 90.834V90.6289C112.925 89.8281 113.022 89.099 113.218 88.4414C113.413 87.7773 113.693 87.2077 114.058 86.7324C114.422 86.2507 114.865 85.8828 115.386 85.6289C115.907 85.3685 116.496 85.2383 117.153 85.2383C117.837 85.2383 118.42 85.362 118.901 85.6094C119.39 85.8568 119.797 86.2116 120.122 86.6738C120.448 87.1296 120.701 87.6764 120.884 88.3145C121.073 88.946 121.213 89.6491 121.304 90.4238V91.0781C121.219 91.8333 121.076 92.5234 120.874 93.1484C120.672 93.7734 120.405 94.3138 120.073 94.7695C119.741 95.2253 119.331 95.5768 118.843 95.8242C118.361 96.0716 117.791 96.1953 117.134 96.1953C116.489 96.1953 115.907 96.0618 115.386 95.7949C114.871 95.528 114.429 95.1536 114.058 94.6719C113.693 94.1901 113.413 93.6237 113.218 92.9727C113.022 92.3151 112.925 91.6022 112.925 90.834ZM115.278 90.6289V90.834C115.278 91.3158 115.324 91.765 115.415 92.1816C115.513 92.5983 115.659 92.9661 115.854 93.2852C116.056 93.5977 116.31 93.8451 116.616 94.0273C116.929 94.2031 117.297 94.291 117.72 94.291C118.273 94.291 118.726 94.1738 119.077 93.9395C119.435 93.7051 119.709 93.3893 119.897 92.9922C120.093 92.5885 120.229 92.1393 120.308 91.6445V89.877C120.269 89.4928 120.187 89.1348 120.063 88.8027C119.946 88.4707 119.787 88.181 119.585 87.9336C119.383 87.6797 119.129 87.4844 118.823 87.3477C118.517 87.2044 118.156 87.1328 117.739 87.1328C117.316 87.1328 116.948 87.224 116.636 87.4062C116.323 87.5885 116.066 87.8392 115.864 88.1582C115.669 88.4772 115.522 88.8483 115.425 89.2715C115.327 89.6947 115.278 90.1471 115.278 90.6289ZM131.11 93.1387C131.11 92.9043 131.052 92.6927 130.935 92.5039C130.817 92.3086 130.593 92.1328 130.261 91.9766C129.935 91.8203 129.453 91.6771 128.815 91.5469C128.256 91.4232 127.741 91.2767 127.272 91.1074C126.81 90.9316 126.413 90.7201 126.081 90.4727C125.749 90.2253 125.492 89.9323 125.31 89.5938C125.127 89.2552 125.036 88.8646 125.036 88.4219C125.036 87.9922 125.131 87.5853 125.319 87.2012C125.508 86.8171 125.778 86.4785 126.13 86.1855C126.481 85.8926 126.908 85.6615 127.409 85.4922C127.917 85.3229 128.483 85.2383 129.108 85.2383C129.994 85.2383 130.752 85.388 131.384 85.6875C132.022 85.9805 132.51 86.3809 132.849 86.8887C133.187 87.39 133.356 87.9564 133.356 88.5879H131.003C131.003 88.3079 130.931 88.0475 130.788 87.8066C130.651 87.5592 130.443 87.3607 130.163 87.2109C129.883 87.0547 129.532 86.9766 129.108 86.9766C128.705 86.9766 128.369 87.0417 128.103 87.1719C127.842 87.2956 127.647 87.4583 127.517 87.6602C127.393 87.862 127.331 88.0833 127.331 88.3242C127.331 88.5 127.364 88.6595 127.429 88.8027C127.5 88.9395 127.618 89.0664 127.78 89.1836C127.943 89.2943 128.164 89.3984 128.444 89.4961C128.731 89.5938 129.089 89.6882 129.519 89.7793C130.326 89.9486 131.019 90.1667 131.599 90.4336C132.185 90.694 132.634 91.0326 132.946 91.4492C133.259 91.8594 133.415 92.3802 133.415 93.0117C133.415 93.4805 133.314 93.9102 133.112 94.3008C132.917 94.6849 132.631 95.0202 132.253 95.3066C131.875 95.5866 131.423 95.8047 130.896 95.9609C130.375 96.1172 129.789 96.1953 129.138 96.1953C128.181 96.1953 127.37 96.026 126.706 95.6875C126.042 95.3424 125.537 94.903 125.192 94.3691C124.854 93.8288 124.685 93.2689 124.685 92.6895H126.96C126.986 93.1257 127.106 93.474 127.321 93.7344C127.543 93.9883 127.816 94.1738 128.142 94.291C128.474 94.4017 128.815 94.457 129.167 94.457C129.59 94.457 129.945 94.4017 130.231 94.291C130.518 94.1738 130.736 94.0176 130.886 93.8223C131.035 93.6204 131.11 93.3926 131.11 93.1387Z" fill="white"/>
<path d="M9.01172 67.0469H12.5322C13.2887 67.0469 13.9336 67.1608 14.4668 67.3887C15 67.6165 15.4079 67.9538 15.6904 68.4004C15.9775 68.8424 16.1211 69.3893 16.1211 70.041C16.1211 70.5378 16.0299 70.9753 15.8477 71.3535C15.6654 71.7318 15.4079 72.0508 15.0752 72.3105C14.7425 72.5658 14.346 72.764 13.8857 72.9053L13.3662 73.1582H10.2012L10.1875 71.7979H12.5596C12.9697 71.7979 13.3115 71.7249 13.585 71.5791C13.8584 71.4333 14.0635 71.235 14.2002 70.9844C14.3415 70.7292 14.4121 70.4421 14.4121 70.123C14.4121 69.7767 14.3438 69.4759 14.207 69.2207C14.0749 68.9609 13.8698 68.7627 13.5918 68.626C13.3138 68.4847 12.9606 68.4141 12.5322 68.4141H10.7275V77H9.01172V67.0469ZM14.6924 77L12.3545 72.5293L14.1523 72.5225L16.5244 76.9111V77H14.6924ZM21.4268 77.1367C20.8799 77.1367 20.3854 77.0479 19.9434 76.8701C19.5059 76.6878 19.1322 76.4349 18.8223 76.1113C18.5169 75.7878 18.2822 75.4072 18.1182 74.9697C17.9541 74.5322 17.8721 74.0605 17.8721 73.5547V73.2812C17.8721 72.7025 17.9564 72.1784 18.125 71.709C18.2936 71.2396 18.5283 70.8385 18.8291 70.5059C19.1299 70.1686 19.4854 69.9111 19.8955 69.7334C20.3057 69.5557 20.75 69.4668 21.2285 69.4668C21.7572 69.4668 22.2197 69.5557 22.6162 69.7334C23.0127 69.9111 23.3408 70.1618 23.6006 70.4854C23.8649 70.8044 24.0609 71.1849 24.1885 71.627C24.3206 72.069 24.3867 72.5566 24.3867 73.0898V73.7939H18.6719V72.6113H22.7598V72.4814C22.7507 72.1852 22.6914 71.9072 22.582 71.6475C22.4772 71.3877 22.3154 71.1781 22.0967 71.0186C21.8779 70.859 21.5863 70.7793 21.2217 70.7793C20.9482 70.7793 20.7044 70.8385 20.4902 70.957C20.2806 71.071 20.1051 71.2373 19.9639 71.4561C19.8226 71.6748 19.7132 71.9391 19.6357 72.249C19.5628 72.5544 19.5264 72.8984 19.5264 73.2812V73.5547C19.5264 73.8783 19.5697 74.179 19.6562 74.457C19.7474 74.7305 19.8796 74.9697 20.0527 75.1748C20.2259 75.3799 20.4355 75.5417 20.6816 75.6602C20.9277 75.7741 21.208 75.8311 21.5225 75.8311C21.9189 75.8311 22.2721 75.7513 22.582 75.5918C22.8919 75.4323 23.1608 75.2067 23.3887 74.915L24.2568 75.7559C24.0973 75.9883 23.89 76.2116 23.6348 76.4258C23.3796 76.6354 23.0674 76.8063 22.6982 76.9385C22.3337 77.0706 21.9098 77.1367 21.4268 77.1367ZM29.1934 75.8242C29.4622 75.8242 29.7038 75.7718 29.918 75.667C30.1367 75.5576 30.3122 75.4072 30.4443 75.2158C30.5811 75.0244 30.6562 74.8034 30.6699 74.5527H32.2217C32.2126 75.0312 32.0713 75.4665 31.7979 75.8584C31.5244 76.2503 31.1621 76.5625 30.7109 76.7949C30.2598 77.0228 29.7607 77.1367 29.2139 77.1367C28.6488 77.1367 28.1566 77.041 27.7373 76.8496C27.318 76.6536 26.9694 76.3848 26.6914 76.043C26.4134 75.7012 26.2038 75.307 26.0625 74.8604C25.9258 74.4137 25.8574 73.9352 25.8574 73.4248V73.1855C25.8574 72.6751 25.9258 72.1966 26.0625 71.75C26.2038 71.2988 26.4134 70.9023 26.6914 70.5605C26.9694 70.2188 27.318 69.9521 27.7373 69.7607C28.1566 69.5648 28.6465 69.4668 29.207 69.4668C29.7995 69.4668 30.319 69.5853 30.7656 69.8223C31.2122 70.0547 31.5632 70.3805 31.8184 70.7998C32.0781 71.2145 32.2126 71.6976 32.2217 72.249H30.6699C30.6562 71.9756 30.5879 71.7295 30.4648 71.5107C30.3464 71.2874 30.1777 71.1097 29.959 70.9775C29.7448 70.8454 29.4873 70.7793 29.1865 70.7793C28.8538 70.7793 28.5781 70.8477 28.3594 70.9844C28.1406 71.1165 27.9697 71.2988 27.8467 71.5312C27.7236 71.7591 27.6348 72.0166 27.5801 72.3037C27.5299 72.5863 27.5049 72.8802 27.5049 73.1855V73.4248C27.5049 73.7301 27.5299 74.0264 27.5801 74.3135C27.6302 74.6006 27.7168 74.8581 27.8398 75.0859C27.9674 75.3092 28.1406 75.4893 28.3594 75.626C28.5781 75.7581 28.8561 75.8242 29.1934 75.8242ZM33.6719 73.3838V73.2266C33.6719 72.6934 33.7493 72.1989 33.9043 71.7432C34.0592 71.2829 34.2826 70.8841 34.5742 70.5469C34.8704 70.2051 35.2305 69.9408 35.6543 69.7539C36.0827 69.5625 36.5658 69.4668 37.1035 69.4668C37.6458 69.4668 38.1289 69.5625 38.5527 69.7539C38.9811 69.9408 39.3434 70.2051 39.6396 70.5469C39.9359 70.8841 40.1615 71.2829 40.3164 71.7432C40.4714 72.1989 40.5488 72.6934 40.5488 73.2266V73.3838C40.5488 73.917 40.4714 74.4115 40.3164 74.8672C40.1615 75.3229 39.9359 75.7217 39.6396 76.0635C39.3434 76.4007 38.9834 76.665 38.5596 76.8564C38.1357 77.0433 37.6549 77.1367 37.1172 77.1367C36.5749 77.1367 36.0895 77.0433 35.6611 76.8564C35.2373 76.665 34.8773 76.4007 34.5811 76.0635C34.2848 75.7217 34.0592 75.3229 33.9043 74.8672C33.7493 74.4115 33.6719 73.917 33.6719 73.3838ZM35.3193 73.2266V73.3838C35.3193 73.7165 35.3535 74.0309 35.4219 74.3271C35.4902 74.6234 35.5973 74.8831 35.7432 75.1064C35.889 75.3298 36.0758 75.5052 36.3037 75.6328C36.5316 75.7604 36.8027 75.8242 37.1172 75.8242C37.4225 75.8242 37.6868 75.7604 37.9102 75.6328C38.138 75.5052 38.3249 75.3298 38.4707 75.1064C38.6165 74.8831 38.7236 74.6234 38.792 74.3271C38.8649 74.0309 38.9014 73.7165 38.9014 73.3838V73.2266C38.9014 72.8984 38.8649 72.5885 38.792 72.2969C38.7236 72.0007 38.6143 71.7386 38.4639 71.5107C38.318 71.2829 38.1312 71.1051 37.9033 70.9775C37.68 70.8454 37.4134 70.7793 37.1035 70.7793C36.7936 70.7793 36.5247 70.8454 36.2969 70.9775C36.0736 71.1051 35.889 71.2829 35.7432 71.5107C35.5973 71.7386 35.4902 72.0007 35.4219 72.2969C35.3535 72.5885 35.3193 72.8984 35.3193 73.2266ZM44.0771 71.1074V77H42.4297V69.6035H43.9814L44.0771 71.1074ZM43.8105 73.0283L43.25 73.0215C43.25 72.5111 43.3138 72.0394 43.4414 71.6064C43.569 71.1735 43.7559 70.7975 44.002 70.4785C44.248 70.1549 44.5534 69.9066 44.918 69.7334C45.2871 69.5557 45.7132 69.4668 46.1963 69.4668C46.5335 69.4668 46.8411 69.5169 47.1191 69.6172C47.4017 69.7129 47.6455 69.8656 47.8506 70.0752C48.0602 70.2848 48.2197 70.5537 48.3291 70.8818C48.443 71.21 48.5 71.6064 48.5 72.0713V77H46.8525V72.2148C46.8525 71.8548 46.7979 71.5723 46.6885 71.3672C46.5837 71.1621 46.431 71.0163 46.2305 70.9297C46.0345 70.8385 45.7998 70.793 45.5264 70.793C45.2165 70.793 44.9521 70.8522 44.7334 70.9707C44.5192 71.0892 44.3438 71.251 44.207 71.4561C44.0703 71.6611 43.9701 71.8981 43.9062 72.167C43.8424 72.4359 43.8105 72.723 43.8105 73.0283ZM48.3975 72.5908L47.625 72.7617C47.625 72.3151 47.6865 71.8936 47.8096 71.4971C47.9372 71.096 48.1217 70.7451 48.3633 70.4443C48.6094 70.139 48.9124 69.8997 49.2725 69.7266C49.6325 69.5534 50.0449 69.4668 50.5098 69.4668C50.888 69.4668 51.2253 69.5192 51.5215 69.624C51.8223 69.7243 52.0775 69.8838 52.2871 70.1025C52.4967 70.3213 52.6562 70.6061 52.7656 70.957C52.875 71.3034 52.9297 71.7227 52.9297 72.2148V77H51.2754V72.208C51.2754 71.8343 51.2207 71.5449 51.1113 71.3398C51.0065 71.1348 50.8561 70.9935 50.6602 70.916C50.4642 70.834 50.2295 70.793 49.9561 70.793C49.7008 70.793 49.4753 70.8408 49.2793 70.9365C49.0879 71.0277 48.9261 71.1576 48.7939 71.3262C48.6618 71.4902 48.5615 71.6794 48.4932 71.8936C48.4294 72.1077 48.3975 72.3402 48.3975 72.5908ZM56.7725 71.1074V77H55.125V69.6035H56.6768L56.7725 71.1074ZM56.5059 73.0283L55.9453 73.0215C55.9453 72.5111 56.0091 72.0394 56.1367 71.6064C56.2643 71.1735 56.4512 70.7975 56.6973 70.4785C56.9434 70.1549 57.2487 69.9066 57.6133 69.7334C57.9824 69.5557 58.4085 69.4668 58.8916 69.4668C59.2288 69.4668 59.5365 69.5169 59.8145 69.6172C60.097 69.7129 60.3408 69.8656 60.5459 70.0752C60.7555 70.2848 60.915 70.5537 61.0244 70.8818C61.1383 71.21 61.1953 71.6064 61.1953 72.0713V77H59.5479V72.2148C59.5479 71.8548 59.4932 71.5723 59.3838 71.3672C59.279 71.1621 59.1263 71.0163 58.9258 70.9297C58.7298 70.8385 58.4951 70.793 58.2217 70.793C57.9118 70.793 57.6475 70.8522 57.4287 70.9707C57.2145 71.0892 57.0391 71.251 56.9023 71.4561C56.7656 71.6611 56.6654 71.8981 56.6016 72.167C56.5378 72.4359 56.5059 72.723 56.5059 73.0283ZM61.0928 72.5908L60.3203 72.7617C60.3203 72.3151 60.3818 71.8936 60.5049 71.4971C60.6325 71.096 60.8171 70.7451 61.0586 70.4443C61.3047 70.139 61.6077 69.8997 61.9678 69.7266C62.3278 69.5534 62.7402 69.4668 63.2051 69.4668C63.5833 69.4668 63.9206 69.5192 64.2168 69.624C64.5176 69.7243 64.7728 69.8838 64.9824 70.1025C65.1921 70.3213 65.3516 70.6061 65.4609 70.957C65.5703 71.3034 65.625 71.7227 65.625 72.2148V77H63.9707V72.208C63.9707 71.8343 63.916 71.5449 63.8066 71.3398C63.7018 71.1348 63.5514 70.9935 63.3555 70.916C63.1595 70.834 62.9248 70.793 62.6514 70.793C62.3962 70.793 62.1706 70.8408 61.9746 70.9365C61.7832 71.0277 61.6214 71.1576 61.4893 71.3262C61.3571 71.4902 61.2568 71.6794 61.1885 71.8936C61.1247 72.1077 61.0928 72.3402 61.0928 72.5908ZM71.0811 77.1367C70.5342 77.1367 70.0397 77.0479 69.5977 76.8701C69.1602 76.6878 68.7865 76.4349 68.4766 76.1113C68.1712 75.7878 67.9365 75.4072 67.7725 74.9697C67.6084 74.5322 67.5264 74.0605 67.5264 73.5547V73.2812C67.5264 72.7025 67.6107 72.1784 67.7793 71.709C67.9479 71.2396 68.1826 70.8385 68.4834 70.5059C68.7842 70.1686 69.1396 69.9111 69.5498 69.7334C69.96 69.5557 70.4043 69.4668 70.8828 69.4668C71.4115 69.4668 71.874 69.5557 72.2705 69.7334C72.667 69.9111 72.9951 70.1618 73.2549 70.4854C73.5192 70.8044 73.7152 71.1849 73.8428 71.627C73.9749 72.069 74.041 72.5566 74.041 73.0898V73.7939H68.3262V72.6113H72.4141V72.4814C72.4049 72.1852 72.3457 71.9072 72.2363 71.6475C72.1315 71.3877 71.9697 71.1781 71.751 71.0186C71.5322 70.859 71.2406 70.7793 70.876 70.7793C70.6025 70.7793 70.3587 70.8385 70.1445 70.957C69.9349 71.071 69.7594 71.2373 69.6182 71.4561C69.4769 71.6748 69.3675 71.9391 69.29 72.249C69.2171 72.5544 69.1807 72.8984 69.1807 73.2812V73.5547C69.1807 73.8783 69.224 74.179 69.3105 74.457C69.4017 74.7305 69.5339 74.9697 69.707 75.1748C69.8802 75.3799 70.0898 75.5417 70.3359 75.6602C70.582 75.7741 70.8623 75.8311 71.1768 75.8311C71.5732 75.8311 71.9264 75.7513 72.2363 75.5918C72.5462 75.4323 72.8151 75.2067 73.043 74.915L73.9111 75.7559C73.7516 75.9883 73.5443 76.2116 73.2891 76.4258C73.0339 76.6354 72.7217 76.8063 72.3525 76.9385C71.988 77.0706 71.5641 77.1367 71.0811 77.1367ZM77.46 71.1826V77H75.8125V69.6035H77.3643L77.46 71.1826ZM77.166 73.0283L76.6328 73.0215C76.6374 72.4974 76.7103 72.0166 76.8516 71.5791C76.9974 71.1416 77.1979 70.7656 77.4531 70.4512C77.7129 70.1367 78.0228 69.8952 78.3828 69.7266C78.7428 69.5534 79.1439 69.4668 79.5859 69.4668C79.9414 69.4668 80.2627 69.5169 80.5498 69.6172C80.8415 69.7129 81.0898 69.8701 81.2949 70.0889C81.5046 70.3076 81.6641 70.5924 81.7734 70.9434C81.8828 71.2897 81.9375 71.7158 81.9375 72.2217V77H80.2832V72.2148C80.2832 71.8594 80.2308 71.5791 80.126 71.374C80.0257 71.1644 79.8776 71.0163 79.6816 70.9297C79.4902 70.8385 79.251 70.793 78.9639 70.793C78.6813 70.793 78.4284 70.8522 78.2051 70.9707C77.9818 71.0892 77.7926 71.251 77.6377 71.4561C77.4873 71.6611 77.3711 71.8981 77.2891 72.167C77.207 72.4359 77.166 72.723 77.166 73.0283ZM88.6309 75.4688V66.5H90.2852V77H88.7881L88.6309 75.4688ZM83.8184 73.3838V73.2402C83.8184 72.6797 83.8844 72.1693 84.0166 71.709C84.1488 71.2441 84.3402 70.8454 84.5908 70.5127C84.8415 70.1755 85.1468 69.918 85.5068 69.7402C85.8669 69.5579 86.2725 69.4668 86.7236 69.4668C87.1702 69.4668 87.5622 69.5534 87.8994 69.7266C88.2367 69.8997 88.5238 70.1481 88.7607 70.4717C88.9977 70.7907 89.1868 71.1735 89.3281 71.6201C89.4694 72.0622 89.5697 72.5544 89.6289 73.0967V73.5547C89.5697 74.0833 89.4694 74.5664 89.3281 75.0039C89.1868 75.4414 88.9977 75.8197 88.7607 76.1387C88.5238 76.4577 88.2344 76.7038 87.8926 76.877C87.5553 77.0501 87.1611 77.1367 86.71 77.1367C86.2633 77.1367 85.86 77.0433 85.5 76.8564C85.1445 76.6696 84.8415 76.4076 84.5908 76.0703C84.3402 75.7331 84.1488 75.3366 84.0166 74.8809C83.8844 74.4206 83.8184 73.9215 83.8184 73.3838ZM85.4658 73.2402V73.3838C85.4658 73.721 85.4954 74.0355 85.5547 74.3271C85.6185 74.6188 85.7165 74.8763 85.8486 75.0996C85.9808 75.3184 86.1517 75.4915 86.3613 75.6191C86.5755 75.7422 86.8307 75.8037 87.127 75.8037C87.5007 75.8037 87.8083 75.7217 88.0498 75.5576C88.2913 75.3936 88.4805 75.1725 88.6172 74.8945C88.7585 74.612 88.8542 74.2975 88.9043 73.9512V72.7139C88.877 72.445 88.82 72.1943 88.7334 71.9619C88.6514 71.7295 88.5397 71.5267 88.3984 71.3535C88.2572 71.1758 88.0817 71.0391 87.8721 70.9434C87.667 70.8431 87.4232 70.793 87.1406 70.793C86.8398 70.793 86.5846 70.8568 86.375 70.9844C86.1654 71.112 85.9922 71.2874 85.8555 71.5107C85.7233 71.734 85.6253 71.9938 85.5615 72.29C85.4977 72.5863 85.4658 72.903 85.4658 73.2402ZM96.6777 75.5166V71.9893C96.6777 71.7249 96.6299 71.4971 96.5342 71.3057C96.4385 71.1143 96.2926 70.9661 96.0967 70.8613C95.9053 70.7565 95.6637 70.7041 95.3721 70.7041C95.1032 70.7041 94.8708 70.7497 94.6748 70.8408C94.4788 70.932 94.3262 71.055 94.2168 71.21C94.1074 71.3649 94.0527 71.5404 94.0527 71.7363H92.4121C92.4121 71.4447 92.4827 71.1621 92.624 70.8887C92.7653 70.6152 92.9704 70.3714 93.2393 70.1572C93.5081 69.943 93.8294 69.7744 94.2031 69.6514C94.5768 69.5283 94.9961 69.4668 95.4609 69.4668C96.0169 69.4668 96.5091 69.5602 96.9375 69.7471C97.3704 69.9339 97.71 70.2165 97.9561 70.5947C98.2067 70.9684 98.332 71.4378 98.332 72.0029V75.291C98.332 75.6283 98.3548 75.9313 98.4004 76.2002C98.4505 76.4645 98.5212 76.6947 98.6123 76.8906V77H96.9238C96.8464 76.8223 96.7848 76.5967 96.7393 76.3232C96.6982 76.0452 96.6777 75.7764 96.6777 75.5166ZM96.917 72.502L96.9307 73.5205H95.748C95.4427 73.5205 95.1738 73.5501 94.9414 73.6094C94.709 73.6641 94.5153 73.7461 94.3604 73.8555C94.2054 73.9648 94.0892 74.097 94.0117 74.252C93.9342 74.4069 93.8955 74.5824 93.8955 74.7783C93.8955 74.9743 93.9411 75.1543 94.0322 75.3184C94.1234 75.4779 94.2555 75.6032 94.4287 75.6943C94.6064 75.7855 94.8206 75.8311 95.0713 75.8311C95.4085 75.8311 95.7025 75.7627 95.9531 75.626C96.2083 75.4847 96.4089 75.3138 96.5547 75.1133C96.7005 74.9082 96.778 74.7145 96.7871 74.5322L97.3203 75.2637C97.2656 75.4505 97.1722 75.651 97.04 75.8652C96.9079 76.0794 96.7347 76.2845 96.5205 76.4805C96.3109 76.6719 96.0579 76.8291 95.7617 76.9521C95.4701 77.0752 95.1328 77.1367 94.75 77.1367C94.2669 77.1367 93.8363 77.041 93.458 76.8496C93.0798 76.6536 92.7835 76.3916 92.5693 76.0635C92.3551 75.7308 92.248 75.3548 92.248 74.9355C92.248 74.5436 92.321 74.1973 92.4668 73.8965C92.6172 73.5911 92.8359 73.3359 93.123 73.1309C93.4147 72.9258 93.7702 72.7708 94.1895 72.666C94.6087 72.5566 95.0872 72.502 95.625 72.502H96.917ZM103.945 69.6035V70.8066H99.7754V69.6035H103.945ZM100.979 67.792H102.626V74.9561C102.626 75.1839 102.658 75.3594 102.722 75.4824C102.79 75.6009 102.883 75.6807 103.002 75.7217C103.12 75.7627 103.259 75.7832 103.419 75.7832C103.533 75.7832 103.642 75.7764 103.747 75.7627C103.852 75.749 103.936 75.7354 104 75.7217L104.007 76.9795C103.87 77.0205 103.711 77.057 103.528 77.0889C103.351 77.1208 103.146 77.1367 102.913 77.1367C102.535 77.1367 102.2 77.0706 101.908 76.9385C101.617 76.8018 101.389 76.5807 101.225 76.2754C101.061 75.9701 100.979 75.5645 100.979 75.0586V67.792ZM107.48 69.6035V77H105.826V69.6035H107.48ZM105.717 67.6621C105.717 67.4115 105.799 67.2041 105.963 67.04C106.132 66.8714 106.364 66.7871 106.66 66.7871C106.952 66.7871 107.182 66.8714 107.351 67.04C107.519 67.2041 107.604 67.4115 107.604 67.6621C107.604 67.9082 107.519 68.1133 107.351 68.2773C107.182 68.4414 106.952 68.5234 106.66 68.5234C106.364 68.5234 106.132 68.4414 105.963 68.2773C105.799 68.1133 105.717 67.9082 105.717 67.6621ZM109.471 73.3838V73.2266C109.471 72.6934 109.548 72.1989 109.703 71.7432C109.858 71.2829 110.081 70.8841 110.373 70.5469C110.669 70.2051 111.029 69.9408 111.453 69.7539C111.882 69.5625 112.365 69.4668 112.902 69.4668C113.445 69.4668 113.928 69.5625 114.352 69.7539C114.78 69.9408 115.142 70.2051 115.438 70.5469C115.735 70.8841 115.96 71.2829 116.115 71.7432C116.27 72.1989 116.348 72.6934 116.348 73.2266V73.3838C116.348 73.917 116.27 74.4115 116.115 74.8672C115.96 75.3229 115.735 75.7217 115.438 76.0635C115.142 76.4007 114.782 76.665 114.358 76.8564C113.935 77.0433 113.454 77.1367 112.916 77.1367C112.374 77.1367 111.888 77.0433 111.46 76.8564C111.036 76.665 110.676 76.4007 110.38 76.0635C110.084 75.7217 109.858 75.3229 109.703 74.8672C109.548 74.4115 109.471 73.917 109.471 73.3838ZM111.118 73.2266V73.3838C111.118 73.7165 111.152 74.0309 111.221 74.3271C111.289 74.6234 111.396 74.8831 111.542 75.1064C111.688 75.3298 111.875 75.5052 112.103 75.6328C112.33 75.7604 112.602 75.8242 112.916 75.8242C113.221 75.8242 113.486 75.7604 113.709 75.6328C113.937 75.5052 114.124 75.3298 114.27 75.1064C114.415 74.8831 114.522 74.6234 114.591 74.3271C114.664 74.0309 114.7 73.7165 114.7 73.3838V73.2266C114.7 72.8984 114.664 72.5885 114.591 72.2969C114.522 72.0007 114.413 71.7386 114.263 71.5107C114.117 71.2829 113.93 71.1051 113.702 70.9775C113.479 70.8454 113.212 70.7793 112.902 70.7793C112.592 70.7793 112.324 70.8454 112.096 70.9775C111.872 71.1051 111.688 71.2829 111.542 71.5107C111.396 71.7386 111.289 72.0007 111.221 72.2969C111.152 72.5885 111.118 72.8984 111.118 73.2266ZM119.862 71.1826V77H118.215V69.6035H119.767L119.862 71.1826ZM119.568 73.0283L119.035 73.0215C119.04 72.4974 119.113 72.0166 119.254 71.5791C119.4 71.1416 119.6 70.7656 119.855 70.4512C120.115 70.1367 120.425 69.8952 120.785 69.7266C121.145 69.5534 121.546 69.4668 121.988 69.4668C122.344 69.4668 122.665 69.5169 122.952 69.6172C123.244 69.7129 123.492 69.8701 123.697 70.0889C123.907 70.3076 124.066 70.5924 124.176 70.9434C124.285 71.2897 124.34 71.7158 124.34 72.2217V77H122.686V72.2148C122.686 71.8594 122.633 71.5791 122.528 71.374C122.428 71.1644 122.28 71.0163 122.084 70.9297C121.893 70.8385 121.653 70.793 121.366 70.793C121.084 70.793 120.831 70.8522 120.607 70.9707C120.384 71.0892 120.195 71.251 120.04 71.4561C119.89 71.6611 119.773 71.8981 119.691 72.167C119.609 72.4359 119.568 72.723 119.568 73.0283Z" fill="white"/>
</g>
<defs>
<clipPath id="clip0_448_1697">
<rect width="164" height="112" rx="20" fill="white"/>
</clipPath>
<clipPath id="clip1_448_1697">
<rect width="232" height="156" fill="white" transform="translate(-8 -22)"/>
</clipPath>
<clipPath id="clip2_448_1697">
<rect width="81" height="87" fill="white" transform="translate(4 -18)"/>
</clipPath>
</defs>
</svg>
